<svg width="70" height="56" viewBox="0 0 70 56" fill="none" xmlns="http://www.w3.org/2000/svg">
<path fill-rule="evenodd" clip-rule="evenodd" d="M13.1911 0.119642C12.1278 0.377972 10.9808 1.43192 10.6828 2.42454C10.5837 2.75445 10.5218 3.96632 10.5218 5.57464V8.18855H7.3672H4.21246L3.87654 8.52393C3.41933 8.98007 3.41933 9.71941 3.87654 10.1756L4.21246 10.5109H11.5357C16.6114 10.5109 18.9615 10.4643 19.1928 10.3593C19.7582 10.1021 20.0153 9.19182 19.6548 8.72311C19.282 8.23855 18.928 8.18855 15.8695 8.18855H12.8489V5.6689C12.8489 3.20226 12.8559 3.14106 13.1792 2.76593L13.5097 2.3826H31.5342H49.5588L49.8893 2.76593L50.2196 3.14926V19.6715V36.1937H31.5342H12.8489V32.7195V29.245L16.0094 29.2017L19.1699 29.1583L19.5001 28.775C19.9221 28.2851 19.922 27.709 19.4999 27.2192L19.1695 26.8359H11.7082H4.24696L3.89378 27.1671C3.40714 27.6233 3.40701 28.3707 3.89351 28.8271C4.24271 29.1547 4.27954 29.1587 7.38417 29.2017L10.5218 29.245L10.5232 37.7399L10.5245 46.2346L10.8436 46.9186C11.0193 47.2949 11.3991 47.8097 11.688 48.0627C12.5875 48.851 12.9649 48.9472 15.3968 49.0075L17.6025 49.0625L17.7686 49.8023C18.2397 51.9037 20.0495 54.1397 22.0599 55.1048C23.116 55.6117 24.7395 56.0042 25.7627 56C27.5298 55.9926 29.9346 55.0138 31.2245 53.7769C32.4971 52.5566 33.1728 51.3282 33.7388 49.2059C33.7744 49.0723 35.2007 49.0351 40.2883 49.0351H46.7921L46.8755 49.4108C47.0591 50.2384 47.2621 50.7829 47.7042 51.6338C49.3217 54.7459 52.9567 56.4923 56.3893 55.8064C58.0641 55.4717 59.391 54.7748 60.5649 53.6135C61.6976 52.493 62.2626 51.5586 62.6936 50.0939L63.0051 49.0351H64.8189C65.8165 49.0351 66.9464 48.9681 67.3298 48.886C68.2027 48.6992 69.0475 48.0667 69.5865 47.1969L70 46.5293V32.5842V18.6393L69.6215 17.8326C68.8913 16.277 64.8805 10.012 64.2338 9.41723C62.9779 8.26177 62.9805 8.26218 57.4503 8.21628L52.5664 8.17571L52.5223 5.34746C52.4725 2.14845 52.3987 1.87345 51.3327 0.912393C50.2535 -0.0605482 51.3683 -0.00972871 31.4751 0.0058449C21.6448 0.0136317 13.417 0.0647241 13.1911 0.119642ZM33.0571 4.83735C32.7653 4.94118 32.3341 5.20648 32.0989 5.42683C31.8636 5.64732 29.1455 8.085 26.0587 10.8441C20.2887 16.0013 19.8302 16.4866 19.8302 17.4356C19.8302 18.4535 20.717 19.5613 21.6754 19.7406L22.1574 19.8309L22.1604 25.8606C22.1631 31.4188 22.1831 31.9333 22.4148 32.4369C22.723 33.1066 23.0746 33.4306 23.7568 33.6734C24.5259 33.9472 43.1968 33.9472 43.9659 33.6734C44.6481 33.4306 44.9997 33.1066 45.3079 32.4369C45.5396 31.9333 45.5596 31.4192 45.5623 25.8738L45.5653 19.8571L46.1597 19.6985C46.9293 19.4931 47.6904 18.6767 47.8187 17.9192C47.9827 16.9506 47.7227 16.3954 46.5932 15.3026L45.5653 14.3078L45.5645 11.1458C45.5641 9.40657 45.5032 7.76574 45.429 7.49949C45.2761 6.95018 44.5896 6.22682 44.0164 6.01111C43.3762 5.77027 40.42 5.82669 39.8632 6.09035C39.3101 6.35223 38.7917 6.98474 38.6299 7.59498L38.5156 8.02598L36.7804 6.47723C34.712 4.63094 34.2319 4.41946 33.0571 4.83735ZM39.75 12.321L45.4441 17.4781H33.8375H22.231L22.6391 17.0786C23.7435 15.9974 33.8635 7.09662 33.9529 7.12791C34.0095 7.14771 36.6182 9.48458 39.75 12.321ZM43.2382 10.1775C43.2382 11.7322 43.2009 12.144 43.0671 12.0639C42.9731 12.0075 42.4495 11.5596 41.9036 11.0683L40.9111 10.1753V9.18185V8.18855H42.0747H43.2382V10.1775ZM54.9018 15.668C54.9409 20.6548 54.9519 20.8431 55.2382 21.3715C55.5871 22.0156 56.2583 22.6746 56.9271 23.0297C57.3657 23.2626 57.8429 23.2874 62.5738 23.3243L67.7413 23.3646V25.0512V26.7378L65.7222 26.7921C63.3832 26.855 62.8756 27.0196 62.288 27.9057C61.9593 28.4015 61.9193 28.6015 61.8758 29.9703C61.8183 31.7797 61.988 32.5286 62.5925 33.1319C63.1942 33.7323 63.8145 33.8697 65.9276 33.8705L67.7413 33.8714V35.0326V36.1937H60.144H52.5467V23.3523V10.5109H53.7041H54.8615L54.9018 15.668ZM62.4274 10.9462C62.943 11.3389 67.2123 18.0132 67.5474 18.9503C67.6474 19.23 67.732 19.8147 67.7353 20.2494L67.7413 21.0398L62.8013 21.0007L57.8614 20.9616L57.5311 20.5783L57.2009 20.195V15.3442V10.4933L59.5733 10.5363C61.9067 10.5786 61.9538 10.5852 62.4274 10.9462ZM0.38149 13.2326C-0.16675 13.7798 -0.110899 14.4994 0.51701 14.9806C0.830485 15.2207 14.3269 15.2207 14.6404 14.9806C15.2683 14.4994 15.3241 13.7798 14.7759 13.2326L14.3758 12.8333H7.57869H0.781616L0.38149 13.2326ZM4.15647 17.6359C3.712 17.8785 3.54047 18.1813 3.54047 18.7238C3.54047 19.1125 3.62644 19.3017 3.90118 19.5173C4.25421 19.7944 4.39576 19.8005 10.5464 19.8005H16.8311L17.1671 19.4651C17.6381 18.9951 17.6136 18.3869 17.103 17.8774L16.7029 17.4781L10.5666 17.4822C6.39009 17.485 4.34278 17.5341 4.15647 17.6359ZM43.2055 25.6406L43.1698 31.4807L40.2725 31.5176L37.3751 31.5543L37.3282 29.2635C37.2863 27.2242 37.2483 26.911 36.9824 26.4131C36.6279 25.7492 35.8512 25.037 35.1718 24.753C34.5435 24.4904 33.1792 24.4904 32.5509 24.753C31.8047 25.065 31.0466 25.8027 30.6925 26.5617C30.4009 27.1867 30.3733 27.4318 30.3721 29.4001L30.3707 31.5544L27.4618 31.5176L24.5529 31.4807L24.5172 25.6406L24.4816 19.8005H33.8614H43.2411L43.2055 25.6406ZM0.714677 22.2563C-0.0309562 22.5616 -0.242997 23.5507 0.317426 24.1098L0.653351 24.4452H7.55734C15.2791 24.4452 14.9644 24.4854 15.1258 23.4787C15.1889 23.0853 15.1371 22.9126 14.8598 22.5907L14.5154 22.1911L7.76171 22.1637C4.04724 22.1487 0.876069 22.1903 0.714677 22.2563ZM55.5597 26.999C54.9967 27.2897 54.7606 27.8233 54.9515 28.3728C55.1814 29.0344 55.8328 29.2486 57.4558 29.1961C58.8107 29.1523 58.8889 29.1333 59.2011 28.771C59.3825 28.5605 59.528 28.2161 59.528 27.9971C59.528 27.7781 59.3825 27.4337 59.2011 27.2232C58.8889 26.8609 58.8107 26.8419 57.4558 26.7981C56.2932 26.7605 55.9512 26.7967 55.5597 26.999ZM34.6888 27.2396C35.0149 27.5649 35.0249 27.6344 35.0249 29.562V31.549H33.8614H32.6978V29.562C32.6978 27.6344 32.7078 27.5649 33.0339 27.2396C33.2657 27.008 33.522 26.9042 33.8614 26.9042C34.2007 26.9042 34.457 27.008 34.6888 27.2396ZM67.7413 30.3919V31.5572L65.996 31.5189L64.2507 31.4807L64.211 30.3536L64.1711 29.2266H65.9563H67.7413V30.3919ZM67.7413 42.2108V45.9055L67.4144 46.2318C66.9893 46.6561 66.4999 46.735 64.6036 46.6853L63.04 46.6445L62.7476 45.6882C61.8692 42.8151 59.8056 40.7533 56.9983 39.944C55.9352 39.6374 53.9888 39.6315 52.8374 39.9314C50.0151 40.6662 47.7019 42.987 46.9958 45.792L46.7641 46.7128H40.281H33.7981L33.715 46.3371C33.1988 44.0047 31.9726 42.2054 30.0484 40.9575C29.0099 40.2839 28.0642 39.9377 26.7734 39.7585C22.7311 39.1974 18.8808 41.7774 17.7786 45.7859L17.5424 46.6445H15.5258H13.5093L13.1791 46.2611C12.8781 45.9117 12.8489 45.7581 12.8489 44.5193V43.1609H14.224C15.5015 43.1609 15.623 43.1371 15.9351 42.8255C16.3923 42.3694 16.3923 41.63 15.9351 41.1739C15.623 40.8623 15.5015 40.8385 14.224 40.8385H12.8489V39.6773V38.5161H40.2951H67.7413V42.2108ZM27.2899 42.2327C28.1441 42.4468 28.8509 42.8591 29.6389 43.6027C31.0071 44.8941 31.5282 46.2033 31.4398 48.1272C31.3913 49.1791 31.3137 49.5189 30.9485 50.2765C30.1061 52.0246 28.4041 53.271 26.4465 53.5733C24.0341 53.946 21.4718 52.5515 20.4156 50.291C19.0754 47.423 20.2363 44.0558 23.0421 42.672C24.4609 41.9721 25.7276 41.8412 27.2899 42.2327ZM56.873 42.3627C58.8891 43.103 60.2538 44.7723 60.6423 46.973C61.1704 49.9651 58.9238 53.0041 55.78 53.5504C52.6748 54.0901 49.5733 51.7943 49.1242 48.6238C48.5165 44.3331 52.8044 40.8684 56.873 42.3627ZM25.0521 44.4137C23.7769 44.6359 22.7222 45.5665 22.3512 46.7966C22.1059 47.61 22.1074 47.9981 22.3595 48.8455C22.8931 50.6387 24.8153 51.6756 26.6354 51.1521C27.608 50.8723 28.705 49.8383 28.9704 48.951C29.3346 47.7338 29.1083 46.4994 28.3614 45.6285C27.4878 44.6099 26.3414 44.1892 25.0521 44.4137ZM54.313 44.4043C52.6161 44.6579 51.4607 46.0207 51.4546 47.7759C51.4495 49.2289 52.09 50.2948 53.3328 50.9017C55.7016 52.0582 58.3261 50.4369 58.3412 47.808C58.3536 45.6293 56.5145 44.0754 54.313 44.4043ZM26.5278 47.0727C27.2953 48.0465 26.3648 49.3092 25.2289 48.8354C24.0535 48.3454 24.4209 46.7128 25.7065 46.7128C26.1243 46.7128 26.3074 46.793 26.5278 47.0727ZM55.6509 47.0201C56.0624 47.4764 56.1241 47.7705 55.9139 48.273C55.4479 49.3858 53.7787 49.0354 53.7787 47.8248C53.7787 46.8275 55.0026 46.3014 55.6509 47.0201Z" fill="#63AFCD"/>
</svg>
