<svg width="62" height="65" viewBox="0 0 62 65" fill="none" xmlns="http://www.w3.org/2000/svg">
<path fill-rule="evenodd" clip-rule="evenodd" d="M22.94 6.27403C19.8459 9.17487 17.2523 11.5867 17.1763 11.6338C17.0771 11.6955 17.0383 11.3372 17.0383 10.3588V8.99805H17.5681C17.9634 8.99805 18.1653 8.92582 18.364 8.71332C18.6134 8.44655 18.6303 8.30923 18.6303 6.55384C18.6303 4.45909 18.538 4.11813 17.8589 3.70211C17.4935 3.47816 17.2218 3.4618 13.8545 3.4618C10.4872 3.4618 10.2154 3.47816 9.85004 3.70211C9.1698 4.11875 9.07869 4.45762 9.07869 6.57107C9.07869 8.38958 9.08971 8.47337 9.36205 8.73054C9.55994 8.91721 9.80032 8.99805 10.158 8.99805H10.6706L10.6666 13.397L10.6627 17.7959L6.28878 21.8846C3.88325 24.1333 1.70844 26.1717 1.45581 26.4143C0.688624 27.1512 0.923494 27.9473 1.90816 27.9473C2.39897 27.9473 2.23157 28.0831 5.00703 25.4321L5.64993 24.8179V41.6404V58.4629H4.26299C2.2841 58.4629 2.34362 58.3765 2.34362 61.2487C2.34362 63.4062 2.35109 63.472 2.62698 63.7325L2.91046 64H28.9949H55.0794L55.3457 63.7153C55.5987 63.4446 55.6119 63.3203 55.6119 61.2142C55.6119 58.377 55.6724 58.4629 53.6732 58.4629H52.3012L52.334 55.4934L52.3669 52.5239L53.4077 51.8928C56.9945 49.7179 59.7672 46.644 60.7616 43.74C60.9846 43.0887 61 42.6713 61 37.301V31.5586L60.6984 31.2738C60.4128 31.0042 60.3363 30.9934 59.2595 31.0703C57.1474 31.2214 54.7529 30.8536 53.1322 30.1294L52.3056 29.76V27.3638V24.9676L53.3771 25.9535C53.9665 26.4959 54.6139 27.116 54.816 27.3314C55.5322 28.0952 56.1348 28.2512 56.5703 27.7856C56.8867 27.4471 56.9083 27.1206 56.6398 26.7355C56.5316 26.5802 50.3297 20.7263 42.8578 13.7266C31.3344 2.93159 29.2188 1 28.919 1C28.6223 1 27.6615 1.84755 22.94 6.27403ZM43.7031 16.8593L50.5912 23.3282V26.5438V29.7594L49.8662 30.0863C48.2558 30.8125 45.6495 31.2158 43.4888 31.0729C42.364 30.9986 42.3162 31.0061 42.0465 31.2982L41.7674 31.6004L41.8016 37.4951L41.8356 43.3896L42.198 44.1895C43.5454 47.1637 45.974 49.7335 49.4497 51.8624L50.53 52.5242L50.5628 55.4935L50.5957 58.4629H44.9605H39.3253V47.7964V37.1301L39.0591 36.8453L38.7927 36.5605H28.9337H19.0746L18.7912 36.8281L18.5078 37.0957V47.7792V58.4629H12.9361H7.36431L7.36565 40.8364L7.36712 23.21L11.9787 18.9033C14.5151 16.5347 16.76 14.4238 16.9674 14.2124C17.1747 14.001 19.9495 11.3833 23.1333 8.39524L28.9221 2.96235L32.8686 6.67628C35.0391 8.71898 39.9147 13.3014 43.7031 16.8593ZM16.9159 6.22949V7.27539H13.8545H10.7931V6.22949V5.18359H13.8545H16.9159V6.22949ZM15.3239 11.199V13.4L13.8545 14.7812L12.385 16.1625V12.5803V8.99805H13.8545H15.3239V11.199ZM27.5695 10.6719C24.5276 11.4896 23.0401 14.9177 24.461 17.8358C25.638 20.2533 28.7054 21.2336 31.2217 19.9966C33.6018 18.8265 34.6027 15.7306 33.3995 13.2595C32.3563 11.1169 29.9261 10.0383 27.5695 10.6719ZM30.5344 12.6545C31.6599 13.2859 32.316 14.563 32.1833 15.8644C32.0008 17.6534 30.363 18.9863 28.5733 18.8021C26.7929 18.6187 25.4665 16.973 25.6498 15.1746C25.7781 13.9161 26.7738 12.6988 27.9816 12.3239C28.6808 12.1068 29.8215 12.2546 30.5344 12.6545ZM12.6512 22.0797C12.391 22.3581 12.385 22.4418 12.385 25.8112C12.385 29.2549 12.3852 29.2581 12.6684 29.5255L12.9518 29.793H28.9337H44.9155L45.1819 29.5082C45.4421 29.2298 45.4481 29.1461 45.4481 25.7767C45.4481 22.333 45.4479 22.3298 45.1647 22.0624L44.8812 21.7949H28.8994H12.9176L12.6512 22.0797ZM43.7337 25.7939V28.0703H28.9165H14.0994V25.7939V23.5176H28.9165H43.7337V25.7939ZM52.2444 31.5917C53.7406 32.3693 55.5642 32.7461 57.8322 32.7461H59.2856V37.746V42.746L58.7546 43.8676C57.6003 46.3066 55.3634 48.6429 52.4357 50.4674L51.4484 51.0828L50.443 50.4561C49.0448 49.5847 47.6365 48.4556 46.523 47.313C45.2952 46.0531 44.6995 45.237 44.0324 43.9L43.4888 42.811V37.7785V32.7461H44.9422C47.2018 32.7461 49.6291 32.2236 50.8974 31.4643C51.1668 31.303 51.4148 31.1798 51.4484 31.1904C51.4821 31.2011 51.8403 31.3816 52.2444 31.5917ZM52.9179 39.6142C51.2678 40.5444 49.6055 41.4854 49.2237 41.7049L48.5297 42.1041L47.9057 40.9445C47.5625 40.3067 47.1953 39.7515 47.0896 39.7108C46.4933 39.4808 45.813 39.8525 45.8179 40.4058C45.8191 40.5581 46.2463 41.4268 46.7669 42.3364C47.5122 43.6385 47.7858 44.0137 48.0536 44.1011C48.3586 44.2008 48.8262 43.9644 52.6142 41.7948C54.9355 40.4653 56.8903 39.2734 56.9581 39.1461C57.2633 38.5732 56.8836 37.9104 56.2548 37.9184C56.0551 37.9208 54.6972 38.611 52.9179 39.6142ZM37.6109 48.373V58.4629H28.9165H20.2222V48.373V38.2832H28.9165H37.6109V48.373ZM34.3259 46.566C34.0729 46.8367 34.0597 46.961 34.0597 49.067C34.0597 51.2245 34.0672 51.2904 34.3431 51.5509C34.7108 51.8978 35.1736 51.8911 35.5079 51.5336C35.7609 51.2629 35.7741 51.1386 35.7741 49.0326C35.7741 46.8751 35.7666 46.8092 35.4907 46.5488C35.123 46.2018 34.6602 46.2085 34.3259 46.566ZM53.8976 61.2314V62.2773H28.9778H4.058V61.2314V60.1855H28.9778H53.8976V61.2314Z" fill="#63AFCD" stroke="#63AFCD" stroke-width="0.5"/>
</svg>
