<svg width="64" height="64" viewBox="0 0 64 64" fill="none" xmlns="http://www.w3.org/2000/svg">
<path fill-rule="evenodd" clip-rule="evenodd" d="M22.2667 3.03746L10.7333 6.06091L10.6615 5.40794C10.5307 4.22044 10.6843 4.25351 5.31253 4.25351H0.654533L0.327333 4.58093L0 4.90821V12.789V20.6699L0.327333 20.9972L0.654533 21.3246H5.33333H10.0121L10.3393 20.9972C10.6081 20.7284 10.6667 20.5377 10.6667 19.9302V19.1907H13.9315H17.1964L20.9416 18.1238C23.0015 17.5369 24.7497 17.0568 24.8267 17.0568C24.9036 17.0568 21.584 19.761 17.4499 23.066C13.3159 26.3711 9.8584 29.1733 9.76667 29.293C9.67493 29.4129 9.6 29.6923 9.6 29.9139C9.6 30.2544 9.8948 30.6115 11.5051 32.2223C13.5847 34.3023 13.8383 34.4366 14.582 33.8514L14.9333 33.5751L14.9292 39.4195C14.9251 45.2281 14.9232 45.267 14.6277 45.7474L14.3304 46.2309L10.6652 44.313C8.64933 43.2582 6.70413 42.3055 6.3424 42.1958C3.7996 41.4251 1.06213 42.8884 0.2644 45.4448C-0.0634667 46.4958 -0.074 47.2165 0.233333 47.5707C0.534533 47.9179 29.5075 64.0031 29.826 64C29.9584 63.9987 35.3016 62.6292 41.7 60.9567L53.3333 57.9156V58.4978C53.3333 58.9379 53.4131 59.1596 53.6607 59.4071L53.9879 59.7345H58.6667H63.3455L63.6727 59.4071L64 59.0798V51.199V43.3181L63.6727 42.9908L63.3455 42.6634H58.6667H53.9879L53.6607 42.9908C53.3919 43.2596 53.3333 43.4503 53.3333 44.0578V44.7973H51.2H49.0667V39.1861V33.5751L49.418 33.8514C50.1617 34.4366 50.4153 34.3023 52.4949 32.2223C54.1052 30.6115 54.4 30.2544 54.4 29.9139C54.4 29.6923 54.3251 29.4129 54.2333 29.293C54.1417 29.1733 51.7431 27.2184 48.9032 24.949L43.7396 20.8227L44.9699 20.7618C45.9149 20.715 46.3755 20.6212 46.9571 20.3574C47.8255 19.9636 48.818 19.1055 49.3267 18.3089L49.6769 17.7605L53.3384 19.6756C55.3523 20.729 57.2959 21.6809 57.6576 21.7911C60.1968 22.5646 62.9377 21.1 63.7356 18.5432C64.0635 17.4923 64.074 16.7715 63.7667 16.4173C63.4101 16.0065 34.4633 -0.0165248 34.1073 1.27926e-05C33.9383 0.00774812 28.61 1.37463 22.2667 3.03746ZM47.8137 9.87123C55.3596 14.0612 61.586 17.5377 61.6503 17.5968C62.0372 17.952 60.9943 19.3102 60.0605 19.667C58.8232 20.1396 59.1007 20.26 47.344 14.143C41.3079 11.0025 36.3881 8.52128 36.1968 8.52128C35.4095 8.52128 34.9131 9.62983 35.4333 10.2264C35.5616 10.3735 38.3667 11.8904 41.6667 13.5973C44.9667 15.3041 47.6925 16.7215 47.724 16.7471C47.7556 16.7727 47.6045 17.0453 47.3884 17.3529C46.8341 18.1418 45.8072 18.6572 44.7901 18.6572C44.0413 18.6572 43.7793 18.5417 38.1364 15.7231C34.9055 14.1094 32.1719 12.789 32.0616 12.789C31.9513 12.789 28.5036 13.7493 24.4 14.9229L16.9389 17.0568H13.8028H10.6667V12.673V8.28922L12.0333 7.92833C22.9104 5.05625 33.5925 2.28033 33.8137 2.2682C33.968 2.2598 40.268 5.68121 47.8137 9.87123ZM8.53333 12.789V19.1907H5.33333H2.13333V12.789V6.3874H5.33333H8.53333V12.789ZM33.5023 15.806C34.8843 16.4976 35.6464 17.0723 43.3628 23.2412L51.7255 29.9268L50.8772 30.778L50.0289 31.6292L41.1981 24.8764C34.4531 19.7187 32.2801 18.1238 31.9985 18.1238C31.7259 18.1238 30.8521 18.7204 28.6483 20.4116C27.0084 21.6697 23.0357 24.7092 19.8203 27.1657L13.9739 31.632L13.1243 30.7794L12.2745 29.9268L21.3287 22.6856C30.2192 15.5754 30.8415 15.1214 31.7689 15.0695C31.8984 15.0622 32.6784 15.3936 33.5023 15.806ZM39.5072 26.2592L46.9245 31.9273L46.9289 38.3428L46.9333 44.7585L41.736 46.2449C38.8775 47.0624 36.4792 47.7314 36.4067 47.7314C36.3217 47.7314 36.2616 44.948 36.2375 39.896L36.2 32.0607L35.8507 31.3157C35.4232 30.4039 34.7487 29.7093 33.8289 29.2338C32.8329 28.719 31.3192 28.7082 30.2667 29.2084C29.3339 29.6515 28.5915 30.3941 28.1484 31.3272L27.8 32.0607L27.7624 39.4277L27.7247 46.7946L24.5571 45.2093C22.8148 44.3373 21.0659 43.5279 20.6705 43.4104C19.7869 43.148 18.3808 43.1434 17.6667 43.4008C17.3733 43.5064 17.1183 43.5939 17.1 43.595C17.0817 43.5961 17.0696 40.9714 17.0731 37.7622L17.0795 31.9273L24.5064 26.2401C28.5912 23.1122 31.9685 20.5616 32.0116 20.572C32.0547 20.5825 35.4277 23.1417 39.5072 26.2592ZM33.1684 31.2834C33.36 31.4265 33.6405 31.7094 33.7917 31.912C34.0624 32.2743 34.0667 32.4074 34.0667 40.3636V48.4471L33.0875 48.7129L32.1081 48.9787L30.9875 48.4226L29.8667 47.8668L29.8688 40.2304L29.8711 32.5942L30.1716 32.0634C30.5952 31.3153 31.3547 30.9011 32.1765 30.9696C32.5321 30.9992 32.9757 31.1395 33.1684 31.2834ZM19.5273 32.3214L19.2 32.6487V36.7952V40.9418L19.5273 41.2691C19.8519 41.5938 19.8752 41.5965 22.4 41.5965C24.9248 41.5965 24.9481 41.5938 25.2727 41.2691L25.6 40.9418V36.7952V32.6487L25.2727 32.3214C24.9481 31.9967 24.9248 31.994 22.4 31.994C19.8752 31.994 19.8519 31.9967 19.5273 32.3214ZM38.7273 32.3214L38.4 32.6487V36.7952V40.9418L38.7273 41.2691C39.0519 41.5938 39.0752 41.5965 41.6 41.5965C44.1248 41.5965 44.1481 41.5938 44.4727 41.2691L44.8 40.9418V36.7952V32.6487L44.4727 32.3214C44.1481 31.9967 44.1248 31.994 41.6 31.994C39.0752 31.994 39.0519 31.9967 38.7273 32.3214ZM23.4667 36.7952V39.4626H22.4H21.3333V36.7952V34.1279H22.4H23.4667V36.7952ZM42.6667 36.7952V39.4626H41.6H40.5333V36.7952V34.1279H41.6H42.6667V36.7952ZM6.74307 44.7125C7.39773 45.0326 12.3299 47.5832 17.7035 50.3806C23.0771 53.178 27.6248 55.4667 27.8096 55.4667C28.5921 55.4667 29.0831 54.3587 28.5667 53.7578C28.4383 53.6084 25.6333 52.0911 22.3333 50.386C19.0333 48.6807 16.3075 47.265 16.276 47.2399C16.2444 47.2149 16.3955 46.9427 16.6116 46.6351C17.1659 45.8462 18.1928 45.3308 19.2099 45.3308C19.9587 45.3308 20.2207 45.4463 25.8636 48.2649C29.0945 49.8786 31.8469 51.199 31.9801 51.199C32.1132 51.199 35.5648 50.2387 39.6501 49.0651L47.0779 46.9312H50.2056H53.3333V51.3271V55.7232L52.8333 55.8536C35.6479 60.3363 30.2387 61.735 30.0893 61.735C29.9188 61.735 2.60813 46.6284 2.34973 46.3912C1.98947 46.0604 2.90907 44.7834 3.7988 44.3792C4.6908 43.9739 5.3956 44.0537 6.74307 44.7125ZM61.8667 51.199V57.6006H58.6667H55.4667V51.199V44.7973H58.6667H61.8667V51.199Z" fill="#63AFCD"/>
</svg>
